<?xml version="1.0" standalone="no"?>
<!DOCTYPE svg PUBLIC "-//W3C//DTD SVG 20010904//EN"
 "http://www.w3.org/TR/2001/REC-SVG-20010904/DTD/svg10.dtd">
<svg version="1.0" xmlns="http://www.w3.org/2000/svg"
 width="745.000000pt" height="745.000000pt" viewBox="0 0 745.000000 745.000000"
 preserveAspectRatio="xMidYMid meet">
<metadata>
Created by potrace 1.11, written by Peter Selinger 2001-2013
</metadata>
<g transform="translate(0.000000,745.000000) scale(0.100000,-0.100000)"
fill="#000000" stroke="none">
<path d="M3709 6694 c-1 -38 -3 -87 -4 -109 -2 -22 -5 -89 -7 -150 -3 -104 -2
-110 17 -110 22 0 22 -21 12 269 -6 165 -16 219 -18 100z"/>
<path d="M4158 6608 c-8 -13 -34 -61 -57 -108 -24 -47 -64 -122 -88 -168 -36
-67 -42 -86 -33 -97 7 -8 16 -15 20 -15 4 0 28 51 53 113 25 61 63 154 85 205
41 93 46 110 20 70z"/>
<path d="M3275 6585 c9 -22 46 -112 82 -200 36 -88 67 -162 69 -164 3 -3 12 2
20 11 15 15 9 31 -76 195 -91 174 -129 238 -95 158z"/>
<path d="M2005 6467 c-14 -34 -13 -58 6 -152 10 -54 87 -225 101 -225 4 0 9
17 9 38 1 20 2 46 3 57 3 58 -75 315 -96 315 -5 0 -15 -15 -23 -33z"/>
<path d="M5362 6443 c-51 -142 -65 -198 -65 -265 0 -95 14 -104 48 -31 51 108
70 169 79 248 4 41 -15 105 -32 105 -5 0 -19 -26 -30 -57z"/>
<path d="M5526 6256 c-50 -52 -139 -188 -171 -261 -25 -56 -49 -144 -42 -152
8 -7 116 145 167 233 52 92 93 188 88 209 -2 7 -21 -6 -42 -29z"/>
<path d="M1861 6239 c41 -107 149 -287 224 -374 l26 -30 -6 40 c-10 62 -57
164 -117 256 -56 86 -119 159 -136 159 -6 0 -1 -23 9 -51z"/>
<path d="M2238 6227 c-33 -26 -49 -145 -35 -257 8 -60 44 -177 57 -185 20 -12
35 95 34 240 -2 190 -14 234 -56 202z"/>
<path d="M5145 6231 c-25 -41 -27 -353 -3 -416 l16 -40 16 38 c40 93 60 252
41 338 -15 70 -51 110 -70 80z"/>
<path d="M2930 6211 c0 -4 21 -23 48 -41 26 -19 49 -37 52 -40 3 -3 51 -43
107 -88 78 -63 102 -78 107 -66 11 28 6 39 -27 60 -138 91 -287 182 -287 175z"/>
<path d="M4342 6116 c-90 -58 -162 -108 -161 -113 9 -45 13 -43 164 78 152
121 173 139 165 139 -3 -1 -78 -47 -168 -104z"/>
<path d="M3660 6189 c-290 -44 -480 -410 -391 -752 36 -136 103 -242 206 -325
38 -31 40 -35 40 -90 l1 -57 88 -3 87 -3 -23 -19 c-13 -11 -17 -19 -10 -20 6
0 12 -7 12 -17 0 -14 -2 -14 -20 2 -12 11 -20 13 -20 6 0 -7 -5 -9 -10 -6 -6
4 -8 11 -5 16 4 5 -6 9 -20 9 -17 0 -24 -4 -19 -12 5 -7 2 -9 -9 -5 -19 7 -43
-20 -39 -45 2 -10 -2 -18 -7 -18 -6 0 -11 -9 -11 -20 0 -11 5 -20 11 -20 6 0
9 -9 6 -19 -6 -24 28 -60 36 -39 4 8 6 7 6 -4 1 -12 9 -18 27 -18 16 0 23 4
18 12 -5 7 -3 8 6 3 10 -6 8 -12 -9 -26 -18 -15 -20 -22 -11 -39 9 -16 8 -22
-4 -26 -8 -3 -19 -3 -24 0 -5 3 -18 -3 -29 -14 -18 -16 -21 -31 -20 -97 1
-153 16 -168 181 -169 66 -1 131 2 143 7 41 15 63 66 63 147 l0 72 -41 0 c-24
0 -38 4 -34 10 8 13 -20 42 -30 32 -4 -4 -4 4 0 18 5 14 8 33 7 43 0 12 5 17
16 15 19 -3 65 25 56 35 -3 3 -1 14 5 25 8 15 7 21 -3 25 -16 6 -29 47 -14 44
6 -1 15 12 20 30 10 37 -6 88 -24 77 -7 -4 -8 -3 -4 4 4 6 13 9 21 5 17 -6 17
-6 20 61 1 44 5 53 36 75 237 176 312 530 173 816 -92 190 -276 301 -454 274z
m113 -83 c98 -11 216 -104 276 -216 88 -164 92 -365 12 -536 -32 -69 -130
-175 -189 -206 -31 -17 -33 -21 -30 -60 l3 -43 -133 -3 -134 -3 2 28 c4 62 0
71 -44 97 -141 82 -231 277 -221 476 12 239 144 421 340 465 27 7 57 10 65 9
8 -2 32 -5 53 -8z m45 -1153 c-10 -2 -26 -2 -35 0 -10 3 -2 5 17 5 19 0 27 -2
18 -5z m47 -53 c0 -29 -32 -41 -41 -16 -9 24 4 48 23 44 12 -2 18 -12 18 -28z
m-48 -57 c2 -6 -4 -14 -14 -17 -14 -4 -18 -15 -18 -41 1 -30 -1 -34 -17 -29
-11 3 -18 0 -18 -7 0 -7 -3 -9 -7 -6 -3 4 -12 2 -19 -4 -15 -12 -48 -4 -40 10
3 4 -3 16 -14 26 -17 15 -18 19 -4 32 8 9 13 22 10 29 -3 8 -1 14 4 14 6 0 10
-3 10 -7 0 -5 4 -14 9 -22 8 -12 12 -12 24 -2 10 8 17 9 22 1 10 -17 25 -11
25 9 0 28 39 40 47 14z m-147 -83 c0 -5 -4 -10 -10 -10 -5 0 -10 5 -10 10 0 6
5 10 10 10 6 0 10 -4 10 -10z m120 -64 c0 -20 -24 -36 -39 -27 -9 6 -11 18 -7
35 6 23 9 25 26 16 11 -6 20 -17 20 -24z m-46 -55 c11 -4 20 -15 22 -24 2 -13
-6 -17 -32 -17 -26 0 -34 4 -34 18 0 31 10 36 44 23z m-108 -39 c-9 -8 -26 10
-26 26 1 15 2 15 15 -2 8 -11 13 -21 11 -24z m-46 7 c0 -5 -9 -9 -20 -9 -19 0
-26 11 -14 23 8 8 34 -3 34 -14z m100 -5 c0 -2 -9 -4 -21 -4 -11 0 -18 4 -14
10 5 8 35 3 35 -6z m120 6 c0 -5 -4 -10 -10 -10 -5 0 -10 5 -10 10 0 6 5 10
10 10 6 0 10 -4 10 -10z m32 -120 c-2 -14 -6 -27 -9 -30 -6 -6 -214 -9 -230
-2 -7 2 -13 17 -13 33 l0 30 128 -3 127 -3 -3 -25z"/>
<path d="M2398 6013 c-40 -45 -78 -162 -83 -249 -3 -65 16 -172 41 -229 l17
-40 18 41 c23 52 45 198 43 284 -1 73 -13 202 -18 207 -1 2 -10 -5 -18 -14z"/>
<path d="M4999 6019 c-1 -8 -3 -30 -5 -49 -14 -143 -4 -290 33 -447 8 -33 18
-28 36 15 58 136 55 287 -9 418 -27 57 -53 86 -55 63z"/>
<path d="M1940 5985 c1 -38 61 -166 112 -237 33 -46 127 -149 161 -177 16 -13
17 -12 8 10 -41 105 -83 173 -186 299 -92 113 -95 117 -95 105z"/>
<path d="M5460 5973 c-113 -135 -186 -237 -224 -315 -25 -51 -44 -94 -41 -96
4 -4 58 50 120 119 70 78 140 202 159 282 7 32 6 33 -14 10z"/>
<path d="M2155 5940 c23 -157 97 -357 229 -620 222 -444 370 -671 707 -1090
125 -155 301 -357 330 -378 16 -11 17 -10 9 17 -12 43 -62 113 -158 221 -46
52 -131 154 -189 225 -57 72 -110 137 -116 145 -41 50 -203 279 -252 355 -32
50 -73 113 -91 142 -19 28 -34 56 -34 62 0 6 -4 11 -10 11 -5 0 -10 4 -10 9 0
5 -25 53 -56 107 -153 270 -283 565 -330 749 -21 83 -39 111 -29 45z"/>
<path d="M5256 5969 c-2 -8 -12 -43 -21 -79 -71 -270 -282 -698 -533 -1080
-68 -102 -227 -327 -242 -340 -3 -3 -19 -23 -35 -46 -41 -56 -89 -114 -230
-277 -137 -158 -181 -216 -201 -264 -18 -42 -2 -44 34 -4 100 108 179 200 260
300 52 64 105 130 118 146 14 17 33 40 42 53 9 13 50 67 91 120 260 341 598
965 685 1265 29 98 50 207 42 214 -3 3 -7 0 -10 -8z"/>
<path d="M2549 5783 c-51 -61 -88 -213 -83 -342 4 -91 38 -215 57 -208 25 8
59 100 73 197 15 107 2 309 -23 354 -9 16 -10 15 -24 -1z"/>
<path d="M4845 5781 c-32 -101 -37 -279 -11 -400 16 -75 44 -142 62 -148 10
-3 39 67 51 123 11 54 5 210 -11 273 -17 66 -64 171 -77 171 -4 0 -10 -9 -14
-19z"/>
<path d="M1936 5711 c-11 -17 72 -128 163 -218 92 -92 201 -173 233 -173 53 0
-137 234 -273 336 -32 24 -103 64 -113 64 -3 0 -7 -4 -10 -9z"/>
<path d="M5434 5701 c-108 -49 -354 -305 -354 -368 0 -73 328 214 394 344 26
51 23 52 -40 24z"/>
<path d="M3097 5674 c-5 -4 -160 -13 -216 -14 -35 0 -61 -3 -57 -7 9 -9 11 -9
146 -18 63 -3 134 -8 157 -9 32 -2 42 1 46 14 7 27 -5 38 -41 36 -19 0 -34 -2
-35 -2z"/>
<path d="M4260 5650 c0 -29 1 -29 48 -25 42 4 278 17 310 18 27 1 0 10 -35 12
-174 11 -244 16 -280 20 -42 4 -43 4 -43 -25z"/>
<path d="M2687 5422 c-34 -62 -54 -158 -51 -245 2 -69 30 -216 44 -230 9 -10
45 72 59 134 6 24 11 75 11 112 0 79 -20 258 -30 270 -3 4 -18 -14 -33 -41z"/>
<path d="M4699 5470 c-29 -131 -36 -322 -14 -404 20 -74 45 -130 55 -119 15
15 41 161 44 237 3 93 -22 199 -58 253 -15 21 -26 35 -27 33z"/>
<path d="M2107 5394 c-8 -9 31 -73 91 -146 99 -124 322 -322 336 -300 9 14
-63 125 -129 200 -95 107 -282 262 -298 246z"/>
<path d="M5259 5364 c-130 -87 -285 -245 -345 -351 -40 -69 -41 -78 -11 -62
75 40 258 212 338 319 39 52 84 130 75 130 -2 0 -28 -16 -57 -36z"/>
<path d="M2806 5223 c-4 -16 -9 -39 -12 -53 -11 -46 -13 -234 -3 -285 10 -56
30 -121 54 -180 16 -36 18 -37 28 -20 24 43 12 356 -17 467 -29 104 -40 120
-50 71z"/>
<path d="M4577 5198 c-39 -128 -58 -409 -32 -493 l12 -40 22 50 c41 92 60 200
56 320 -3 109 -20 215 -34 215 -4 0 -15 -24 -24 -52z"/>
<path d="M2310 5035 c0 -78 253 -325 385 -375 32 -12 31 -4 -5 43 -91 121
-380 373 -380 332z"/>
<path d="M5035 4994 c-96 -72 -228 -194 -281 -261 -60 -76 -64 -86 -30 -73 96
36 323 233 365 317 38 77 29 80 -54 17z"/>
<path d="M2942 5013 c-14 -35 -6 -276 11 -356 19 -91 66 -227 77 -227 9 0 33
94 33 130 0 75 -16 187 -37 256 -39 131 -67 214 -72 214 -3 0 -8 -8 -12 -17z"/>
<path d="M4453 5008 c-1 -7 -14 -54 -31 -104 -51 -151 -66 -233 -64 -333 1
-50 21 -141 31 -141 3 0 18 33 33 73 48 129 59 191 62 332 3 126 -3 185 -18
185 -7 0 -13 -6 -13 -12z"/>
<path d="M2500 4681 c0 -12 127 -131 195 -182 68 -52 185 -122 192 -115 10 10
-178 187 -242 228 -81 50 -145 81 -145 69z"/>
<path d="M4844 4652 c-38 -21 -93 -55 -122 -75 -50 -37 -195 -187 -188 -194 6
-7 125 67 204 127 79 60 189 166 181 174 -2 3 -36 -12 -75 -32z"/>
<path d="M1243 3345 c-60 -28 -70 -40 -50 -60 9 -9 15 -34 15 -66 1 -28 6 -57
12 -64 8 -9 8 -20 1 -32 -11 -21 -9 -182 3 -201 4 -6 4 -17 1 -23 -6 -8 -8
-208 -4 -299 0 -20 -5 -42 -14 -57 -4 -7 -7 -45 -6 -85 1 -40 -4 -99 -10 -132
-17 -76 -8 -84 55 -54 l49 23 0 130 c0 72 -4 143 -9 158 -5 18 -5 32 1 38 9 9
8 122 -1 179 -3 14 -1 53 3 88 4 34 4 62 1 62 -7 0 -3 123 4 167 3 12 0 25 -5
29 -5 3 -6 10 -3 16 6 10 16 209 11 208 -1 -1 -25 -12 -54 -25z"/>
<path d="M5503 3349 c-40 -19 -41 -22 -32 -52 5 -18 12 -68 14 -112 3 -52 10
-84 19 -90 12 -9 12 -14 -1 -30 -10 -15 -13 -35 -8 -75 4 -30 6 -68 4 -85 -5
-81 -1 -149 10 -153 9 -3 9 -8 1 -17 -6 -7 -12 -72 -14 -148 -2 -74 -6 -140
-10 -145 -12 -20 13 -22 46 -4 32 19 33 20 31 83 -5 112 -4 140 2 159 4 13 0
20 -14 25 -29 9 -9 37 46 64 78 38 232 21 234 -26 0 -10 0 -54 -1 -98 -1 -44
-2 -96 -1 -115 0 -19 -4 -48 -11 -63 -16 -40 0 -51 45 -32 20 8 37 21 38 28 0
6 2 81 4 165 3 133 1 153 -13 162 -10 5 -13 10 -8 10 6 0 -1 10 -13 21 -28 26
-79 39 -110 27 -13 -4 -29 -5 -35 0 -23 16 -88 -1 -133 -35 -30 -21 -33 -22
-33 -6 -1 10 -1 107 -1 216 0 109 -4 195 -9 192 -5 -3 -11 -1 -15 5 -3 5 -2
10 3 10 5 0 14 11 20 24 9 20 7 27 -14 47 l-25 24 21 17 c31 25 9 30 -37 7z"/>
<path d="M3868 3317 c-45 -21 -61 -41 -38 -49 14 -4 21 -56 26 -198 3 -68 9
-127 13 -130 10 -5 10 -60 1 -60 -3 0 -6 -22 -7 -50 -1 -28 3 -50 9 -50 6 0 7
-7 2 -17 -14 -33 -12 -157 3 -172 12 -11 12 -16 -1 -30 -24 -27 -24 -87 1
-113 22 -23 22 -24 2 -36 -11 -7 -17 -17 -14 -22 4 -6 11 -8 16 -5 17 11 9 -8
-18 -44 -16 -20 -28 -39 -28 -43 0 -4 -9 -14 -20 -22 -19 -13 -19 -15 -3 -21
10 -4 28 -7 40 -7 13 1 79 3 148 4 69 2 131 7 138 11 6 5 21 2 32 -6 23 -16
219 -14 264 2 18 8 33 8 46 1 10 -5 26 -7 34 -4 18 7 61 72 52 81 -9 10 -66
-19 -77 -39 -9 -17 -12 -17 -25 -3 -9 8 -19 13 -23 11 -22 -14 -251 -24 -270
-11 -5 3 -21 0 -35 -6 -18 -8 -29 -9 -38 -1 -7 5 -38 13 -69 17 -87 11 -85 6
-91 155 0 14 2 63 5 110 2 47 1 92 -4 101 -4 9 -5 19 -2 23 11 11 12 170 1
183 -6 7 -5 14 2 18 16 10 9 68 -11 85 -22 18 -29 104 -11 122 7 7 12 20 12
29 0 9 6 22 14 29 17 13 10 40 -10 40 -20 0 -17 17 4 29 11 6 16 20 15 43 -1
18 -2 41 -2 51 -1 22 -24 21 -83 -6z"/>
<path d="M2632 3097 c-42 -43 -53 -67 -29 -67 22 0 111 85 103 98 -13 21 -31
13 -74 -31z"/>
<path d="M4692 3097 c-72 -73 -48 -94 30 -26 29 25 45 46 41 55 -9 23 -27 16
-71 -29z"/>
<path d="M6141 3040 c-44 -22 -52 -39 -40 -84 6 -20 9 -51 7 -69 -3 -27 -7
-32 -33 -35 -29 -4 -65 -31 -65 -50 0 -5 20 -7 45 -4 l45 5 0 -37 c0 -20 5
-36 11 -36 5 0 7 -6 3 -12 -5 -7 -9 -65 -11 -129 -2 -105 0 -120 18 -143 24
-31 55 -30 155 6 50 18 66 28 71 46 8 34 -11 48 -33 24 -35 -35 -73 -54 -98
-48 -26 6 -36 30 -36 89 0 28 -4 37 -17 37 -16 1 -16 2 -2 13 19 15 19 58 0
80 -11 14 -11 18 2 23 11 4 14 15 11 40 -3 28 -1 34 14 34 10 0 23 5 29 11 7
7 21 6 48 -5 37 -16 39 -15 71 9 43 33 46 60 7 51 -88 -20 -185 -13 -168 13 3
5 1 12 -5 16 -7 4 -7 13 1 26 13 25 21 120 11 134 -5 7 -18 6 -41 -5z"/>
<path d="M5358 2898 c-16 -5 -28 -14 -28 -19 0 -6 -27 -9 -62 -7 -35 1 -70 -2
-78 -7 -8 -5 -46 -10 -85 -11 -79 -1 -123 -17 -178 -66 -37 -33 -45 -50 -54
-119 -4 -30 0 -40 32 -72 23 -23 47 -37 64 -38 24 -1 25 -1 3 -7 -36 -11 -92
-61 -92 -83 0 -33 17 -56 51 -68 33 -11 109 -5 109 10 0 4 12 2 27 -6 15 -8
33 -11 42 -6 21 10 149 -2 177 -17 31 -16 54 -80 47 -131 -5 -33 -14 -48 -44
-71 -43 -35 -170 -71 -230 -67 -21 2 -40 -1 -43 -7 -2 -7 -8 -7 -17 2 -7 6
-24 12 -37 12 -14 0 -44 16 -68 35 -40 33 -42 37 -33 65 6 16 17 34 25 41 8 6
14 18 14 26 0 11 -12 8 -49 -13 -108 -58 -82 -150 54 -191 24 -8 43 -9 50 -3
7 6 16 5 23 -2 9 -9 12 -9 12 2 0 12 2 12 9 2 11 -18 51 -17 137 1 173 37 285
143 271 255 -6 50 -16 72 -33 72 -7 0 -17 6 -21 14 -13 22 -133 54 -133 35 0
-6 -7 -6 -17 -1 -29 15 -84 7 -99 -13 -11 -15 -16 -16 -29 -5 -8 7 -30 14 -48
16 -17 2 -49 9 -70 15 -35 12 -36 13 -21 30 9 10 42 24 73 31 31 6 61 19 67
27 6 8 21 16 33 18 64 9 178 107 168 143 -3 11 -1 20 4 20 16 0 10 26 -12 49
-13 13 -18 29 -14 39 6 16 7 16 16 0 15 -27 44 -22 84 16 44 39 45 68 3 54z
m-181 -122 c26 -28 33 -43 29 -64 -2 -15 -5 -32 -5 -39 -1 -18 -101 -63 -140
-63 -101 0 -152 111 -80 172 36 31 55 36 118 33 37 -2 51 -9 78 -39z"/>
<path d="M2613 2848 c-18 -13 -31 -29 -28 -36 3 -8 5 -27 5 -43 0 -21 6 -32
23 -39 15 -6 17 -9 5 -9 -13 -1 -16 -11 -16 -48 0 -25 4 -56 8 -69 6 -14 5
-24 -1 -26 -6 -2 -12 -29 -14 -60 -3 -31 -6 -62 -7 -69 -6 -26 33 -20 61 9 26
25 29 34 22 63 -6 29 -5 242 2 319 3 33 -20 36 -60 8z"/>
<path d="M2860 2852 c-33 -22 -41 -34 -34 -52 4 -8 8 -46 9 -85 2 -40 7 -71
14 -73 8 -3 7 -10 -3 -23 -9 -14 -11 -32 -6 -59 4 -22 3 -40 -2 -40 -4 0 -7
-13 -6 -28 1 -15 -1 -33 -5 -39 -13 -20 11 -24 48 -9 38 16 49 51 18 59 -16 4
-16 5 0 6 19 1 19 7 7 159 -6 80 13 108 88 132 40 13 53 13 89 2 38 -13 44
-12 67 5 84 60 -85 81 -189 23 -44 -25 -45 -25 -45 -1 0 31 -22 41 -50 23z"/>
<path d="M3405 2856 c-72 -17 -157 -79 -196 -142 -36 -59 -28 -155 19 -208 41
-49 108 -72 197 -70 45 1 108 9 141 19 51 14 63 22 79 51 28 51 8 62 -38 20
-48 -44 -152 -70 -207 -51 -39 13 -100 56 -100 71 0 8 -4 14 -9 14 -5 0 -15
17 -21 38 -7 20 -16 41 -20 46 -5 5 -4 19 2 32 12 26 68 37 188 38 36 1 71 5
78 9 7 5 19 4 26 -2 7 -6 34 -10 59 -10 l46 2 -15 36 c-14 37 -92 114 -105
105 -4 -2 -10 0 -14 6 -8 13 -47 12 -110 -4z m104 -54 c14 -10 26 -23 28 -29
5 -13 -48 -21 -115 -17 -38 3 -54 0 -58 -10 -4 -11 -10 -11 -30 -2 -38 18 -28
28 76 76 23 11 73 2 99 -18z"/>
<path d="M4672 2848 c-23 -17 -31 -29 -27 -43 2 -11 5 -30 5 -43 0 -14 8 -26
23 -32 15 -6 17 -9 6 -9 -13 -1 -17 -12 -17 -47 -1 -26 3 -54 8 -64 6 -11 5
-21 -1 -27 -5 -5 -12 -36 -14 -68 -3 -32 -7 -60 -10 -63 -3 -3 0 -11 6 -18 8
-10 17 -8 44 9 38 25 43 37 35 87 -6 32 -4 266 3 315 3 28 -23 29 -61 3z"/>
<path d="M2117 2845 c-76 -28 -158 -101 -185 -165 -18 -43 -24 -97 -12 -105 5
-3 7 -12 4 -20 -10 -26 35 -82 84 -107 40 -20 61 -23 147 -22 85 2 108 6 155
28 68 31 95 56 116 104 31 70 23 222 -11 222 -7 0 -22 11 -32 24 -26 32 -77
58 -90 45 -8 -8 -13 -7 -17 0 -10 15 -113 12 -159 -4z m191 -60 c52 -47 65
-78 67 -160 2 -57 -36 -118 -88 -145 -50 -26 -151 -29 -197 -5 -16 8 -36 15
-45 15 -8 0 -15 6 -15 14 0 15 -31 79 -41 84 -11 5 0 58 21 106 37 81 118 136
201 136 41 0 53 -5 97 -45z"/>
<path d="M1448 2832 c-16 -9 -28 -21 -28 -26 0 -12 41 -79 54 -88 5 -3 11 -17
13 -30 2 -13 11 -34 21 -48 9 -14 22 -36 28 -50 44 -101 76 -160 86 -160 27 1
48 29 96 126 92 184 138 294 122 294 -39 0 -57 -21 -80 -96 -13 -44 -23 -83
-22 -88 2 -5 -1 -12 -6 -15 -5 -3 -24 -35 -42 -70 l-32 -64 -24 29 c-13 16
-23 34 -24 41 0 6 -10 29 -22 50 -12 20 -23 43 -24 50 -1 8 -11 30 -22 51 -10
20 -24 54 -31 75 -14 41 -23 44 -63 19z"/>
<path d="M2633 1989 c-39 -19 -41 -22 -32 -47 9 -24 19 -123 19 -184 0 -19 5
-28 15 -28 19 0 19 -7 -1 -27 -11 -11 -14 -30 -11 -67 2 -29 6 -57 10 -62 3
-6 2 -26 -2 -45 -10 -45 -5 -133 9 -137 6 -2 6 -11 -1 -24 -6 -11 -11 -66 -11
-122 0 -55 -4 -118 -8 -139 -10 -46 -1 -53 42 -29 32 18 33 20 31 83 -4 117
-4 140 2 159 4 13 0 20 -15 25 -31 10 -9 39 50 64 59 25 157 27 203 4 31 -15
30 -12 28 -113 -1 -41 -2 -95 -2 -120 0 -25 -5 -58 -11 -73 -16 -40 0 -50 47
-31 l40 15 0 95 c1 52 -2 94 -6 94 -4 0 -3 15 2 33 16 50 13 99 -6 113 -9 7
-15 15 -13 20 6 15 -49 44 -82 44 -69 -1 -75 -1 -95 1 -32 4 -77 -11 -112 -38
l-33 -24 0 23 c-1 13 -1 110 -1 216 0 121 -3 190 -9 187 -15 -9 -11 18 5 39
14 18 13 22 -11 47 l-26 27 21 14 c21 13 28 28 14 28 -5 0 -27 -9 -50 -21z"/>
<path d="M4439 1987 c-38 -32 -41 -51 -13 -88 23 -32 24 -33 5 -53 -14 -16
-18 -33 -15 -76 5 -88 7 -321 5 -477 -1 -10 -1 -30 -1 -45 0 -16 8 -33 20 -41
20 -14 20 -14 -3 -26 -17 -9 -23 -22 -25 -57 -2 -24 0 -49 3 -54 8 -14 85 27
86 45 1 8 2 21 3 28 1 6 -2 37 -7 67 -13 83 -18 302 -10 485 2 55 3 108 3 118
0 9 0 23 0 30 0 6 1 36 3 65 5 65 -1 102 -17 102 -6 -1 -23 -11 -37 -23z"/>
<path d="M385 1943 c-28 -15 -45 -31 -45 -44 0 -4 115 -4 205 0 59 3 219 -9
224 -17 3 -6 19 -14 34 -17 l28 -7 -22 -12 c-26 -12 -40 -61 -28 -92 4 -10 8
-31 8 -46 1 -15 9 -32 19 -37 16 -10 16 -12 -2 -26 -16 -12 -20 -29 -21 -80
-1 -36 2 -68 6 -70 4 -3 5 -14 2 -25 -3 -11 0 -20 6 -20 8 0 9 -5 2 -19 -6
-10 -11 -79 -11 -152 0 -172 -11 -347 -24 -368 -3 -4 -2 -12 2 -18 5 -8 23 -4
59 13 l51 25 4 62 c4 87 -1 159 -13 152 -12 -8 -11 -2 5 29 8 17 11 40 7 64
-3 20 -6 61 -6 90 0 40 -4 53 -17 57 -29 10 -31 38 -4 62 15 12 22 25 16 28
-6 4 -8 11 -5 16 4 5 0 9 -7 9 -8 0 -7 4 4 10 14 9 16 24 14 99 -2 49 -6 94
-10 100 -4 5 -4 22 0 36 5 21 2 27 -15 32 -29 7 -26 28 10 74 29 37 31 38 93
37 34 -1 68 2 74 6 6 4 20 3 29 -2 10 -4 83 -8 161 -8 l144 1 26 30 c22 26 23
30 8 33 -10 2 -25 -3 -35 -12 -12 -11 -20 -13 -28 -5 -7 7 -22 8 -46 1 -20 -6
-37 -6 -39 -1 -2 4 -19 5 -38 0 -62 -14 -687 1 -717 17 -30 16 -72 14 -108 -5z"/>
<path d="M5922 1737 c-62 -63 -53 -93 14 -42 51 39 64 54 58 70 -10 24 -27 17
-72 -28z"/>
<path d="M5736 1525 c-11 -12 -32 -15 -73 -13 -32 1 -65 -2 -73 -7 -8 -5 -46
-10 -85 -11 -79 -1 -123 -17 -178 -66 -37 -33 -45 -50 -54 -119 -4 -30 0 -40
32 -72 24 -24 47 -37 63 -37 26 -1 25 -2 -8 -16 -95 -41 -107 -113 -23 -145
29 -11 103 -1 103 14 0 5 8 3 18 -6 10 -10 22 -14 25 -10 11 10 148 4 186 -8
44 -15 72 -75 64 -136 -4 -33 -14 -48 -43 -72 -45 -36 -154 -69 -222 -67 -27
1 -49 -3 -51 -8 -2 -6 -9 -6 -18 -1 -8 5 -25 11 -39 13 -13 2 -43 19 -67 38
-39 32 -41 36 -32 64 6 16 17 34 25 41 8 6 14 17 14 25 0 10 -5 11 -28 1 -97
-42 -118 -123 -43 -169 50 -32 112 -50 127 -37 8 7 15 6 19 -2 6 -8 10 -7 16
2 6 10 9 11 9 2 0 -30 173 -2 258 41 91 46 152 124 152 194 0 48 -20 92 -41
92 -10 0 -19 6 -19 14 0 18 -109 49 -125 36 -7 -5 -15 -7 -18 -3 -16 16 -76
10 -97 -9 -17 -16 -24 -17 -36 -7 -9 7 -33 14 -54 16 -21 2 -52 9 -69 16 -30
13 -30 14 -14 29 20 17 77 38 104 38 11 0 28 9 39 20 11 11 27 20 35 20 50 0
171 105 162 140 -3 10 0 21 5 22 12 4 -7 48 -25 59 -5 4 -7 15 -3 25 7 18 8
18 17 2 16 -28 47 -21 89 21 22 22 40 42 40 45 0 13 -49 5 -64 -9z m-201 -76
c67 -21 94 -117 43 -158 -24 -20 -90 -41 -128 -41 -54 0 -105 56 -102 114 2
67 101 113 187 85z"/>
<path d="M1684 1495 c-120 -32 -226 -144 -219 -230 7 -87 29 -123 98 -160 46
-26 62 -29 137 -28 49 0 110 7 146 17 51 15 63 23 79 52 28 52 7 62 -39 20
-35 -33 -92 -53 -166 -58 -59 -4 -150 66 -171 131 -6 20 -15 40 -19 45 -5 5
-4 19 2 32 13 27 57 37 178 38 41 1 81 5 88 9 7 5 19 4 27 -3 13 -10 78 -12
97 -3 5 2 -1 21 -12 43 -20 39 -88 103 -101 94 -4 -2 -10 0 -14 6 -8 13 -49
12 -111 -5z m109 -57 c18 -14 29 -29 25 -33 -4 -4 -42 -8 -85 -9 -43 0 -83 -4
-90 -9 -6 -4 -23 -2 -37 4 -33 15 -19 30 54 56 71 25 95 24 133 -9z"/>
<path d="M2265 1496 c-56 -21 -90 -44 -135 -93 -63 -67 -77 -93 -56 -105 22
-12 20 -35 -4 -43 -16 -5 -18 -10 -10 -25 6 -10 10 -28 10 -40 0 -11 19 -40
43 -64 36 -37 51 -45 112 -56 80 -16 90 -16 166 3 56 15 108 42 110 58 1 5 2
15 3 22 4 26 -6 24 -55 -8 -105 -71 -203 -57 -288 42 -18 19 -26 42 -28 81 -5
65 0 92 24 118 47 52 93 64 200 51 48 -5 54 -4 82 25 17 18 30 32 28 34 -10 9
-178 9 -202 0z"/>
<path d="M4025 1499 c-70 -8 -97 -17 -151 -54 -95 -64 -149 -167 -124 -235 1
-3 2 -14 1 -25 -3 -33 60 -90 121 -110 102 -33 275 -1 346 65 34 32 55 89 57
160 2 73 -10 120 -31 120 -8 0 -19 9 -26 21 -17 27 -85 63 -93 48 -5 -7 -12
-6 -23 3 -13 10 -33 12 -77 7z m75 -44 c7 -8 16 -15 21 -15 19 0 68 -67 77
-105 32 -133 -45 -239 -173 -237 -58 0 -165 32 -165 49 0 14 -32 76 -44 84 -4
4 -3 10 3 14 9 5 9 11 0 22 -10 11 -10 16 0 22 7 5 13 12 13 17 4 47 62 113
128 146 43 22 123 24 140 3z"/>
<path d="M5903 1488 c-29 -21 -32 -27 -26 -58 3 -19 6 -41 6 -47 0 -7 10 -14
21 -14 15 -1 16 -3 5 -6 -19 -5 -25 -83 -9 -113 6 -10 5 -21 -1 -27 -5 -5 -12
-38 -14 -72 -2 -34 -7 -66 -10 -71 -14 -23 39 -8 65 18 25 25 27 33 21 68 -6
34 -5 265 2 319 3 28 -23 29 -60 3z"/>
<path d="M6314 1495 c-117 -32 -211 -125 -217 -216 -6 -82 29 -141 105 -180
55 -29 183 -31 274 -4 52 14 65 23 80 51 28 52 7 62 -40 19 -40 -36 -46 -39
-131 -54 -41 -8 -56 -6 -92 11 -24 11 -43 24 -43 29 0 5 -7 9 -15 9 -9 0 -19
8 -22 18 -4 9 -13 23 -20 31 -8 7 -17 26 -20 42 -3 16 -9 32 -14 35 -4 2 -3
16 3 29 9 20 21 25 67 31 45 6 130 11 216 13 6 0 31 -2 58 -5 39 -5 47 -3 47
10 0 43 -48 100 -109 130 -40 19 -59 19 -127 1z m107 -55 c19 -15 31 -31 27
-35 -4 -4 -42 -8 -85 -9 -43 0 -83 -4 -90 -9 -6 -4 -23 -2 -37 4 -22 10 -23
13 -10 27 15 15 106 46 142 49 11 1 35 -11 53 -27z"/>
<path d="M6875 1498 c-88 -33 -165 -102 -165 -150 0 -38 16 -51 80 -65 24 -6
34 -6 75 -3 11 0 42 -1 68 -2 40 -3 51 -8 65 -31 15 -24 15 -31 2 -69 -27 -77
-131 -108 -209 -62 -24 15 -41 33 -41 43 0 32 -22 41 -48 20 -35 -28 -25 -58
30 -92 47 -29 71 -33 159 -23 77 8 158 56 159 92 0 7 9 14 20 17 23 6 27 53
10 103 -19 52 -63 71 -162 69 -75 -1 -91 2 -113 19 -32 26 -26 50 19 73 34 18
104 25 112 12 9 -15 54 -10 85 8 31 19 37 31 17 38 -35 10 -137 12 -163 3z"/>
<path d="M3206 1475 c-23 -22 -25 -28 -15 -47 7 -13 11 -45 10 -71 -1 -27 3
-55 10 -63 6 -8 7 -14 2 -14 -5 0 -10 -47 -11 -105 -1 -58 2 -105 7 -105 4 0
22 7 39 16 31 15 32 18 26 62 -6 52 -6 53 -3 101 1 23 -4 38 -16 47 -17 13
-17 15 -2 31 8 10 17 34 19 53 2 28 10 39 39 54 24 13 42 17 55 11 23 -10 65
-7 79 6 18 18 40 8 65 -28 27 -39 26 -37 28 -105 2 -35 6 -48 17 -48 8 0 15
-4 15 -9 0 -5 -7 -16 -15 -25 -22 -21 -18 -44 7 -52 l23 -7 -21 -8 c-14 -5
-23 -19 -27 -41 -7 -50 7 -61 48 -36 l35 20 -7 76 c-3 43 -6 92 -7 110 -1 18
-8 37 -16 43 -13 8 -13 11 2 20 13 7 17 19 13 46 -10 82 -79 105 -241 80 -11
-2 -35 -13 -51 -25 -39 -28 -41 -28 -45 5 -4 37 -28 40 -62 8z"/>
<path d="M4825 1482 c-96 -41 -165 -107 -188 -178 -17 -54 -18 -84 -5 -84 5 0
6 -9 3 -20 -7 -24 23 -79 55 -98 83 -51 234 -54 335 -6 65 31 90 54 111 102
31 69 23 222 -12 222 -7 0 -21 11 -29 24 -18 28 -68 51 -90 42 -8 -3 -15 -1
-15 4 0 16 -122 10 -165 -8z m155 -27 c7 -8 16 -15 21 -15 19 0 68 -67 77
-105 32 -133 -45 -239 -173 -237 -58 0 -165 32 -165 49 0 11 -30 73 -40 83 -5
5 -5 37 0 53 1 4 3 10 5 15 18 62 69 121 135 154 43 22 123 24 140 3z"/>
</g>
</svg>
